<mxfile host="app.diagrams.net" modified="2020-11-06T23:20:26.739Z" agent="5.0 (Macintosh; Intel Mac OS X 10_14_6) AppleWebKit/537.36 (KHTML, like Gecko) Chrome/86.0.4240.111 Safari/537.36" etag="s5mE2U4isyz8TkKMshQr" version="13.9.2" type="github">
  <diagram id="R2lEEEUBdFMjLlhIrx00" name="Page-1">
    <mxGraphModel dx="1892" dy="1228" grid="1" gridSize="10" guides="1" tooltips="1" connect="1" arrows="1" fold="1" page="1" pageScale="1" pageWidth="850" pageHeight="1100" math="0" shadow="0" extFonts="Permanent Marker^https://fonts.googleapis.com/css?family=Permanent+Marker">
      <root>
        <mxCell id="0" />
        <mxCell id="1" parent="0" />
        <mxCell id="r_fly-AJpgiWsE7_w21V-1" value="GitHub" style="shape=table;startSize=30;container=1;collapsible=1;childLayout=tableLayout;fixedRows=1;rowLines=0;fontStyle=1;align=center;resizeLast=1;fillColor=#f8cecc;strokeColor=#b85450;" vertex="1" parent="1">
          <mxGeometry x="20" y="920" width="350" height="160" as="geometry" />
        </mxCell>
        <mxCell id="r_fly-AJpgiWsE7_w21V-2" value="" style="shape=partialRectangle;collapsible=0;dropTarget=0;pointerEvents=0;fillColor=none;top=0;left=0;bottom=0;right=0;points=[[0,0.5],[1,0.5]];portConstraint=eastwest;" vertex="1" parent="r_fly-AJpgiWsE7_w21V-1">
          <mxGeometry y="30" width="350" height="30" as="geometry" />
        </mxCell>
        <mxCell id="r_fly-AJpgiWsE7_w21V-3" value="Role1" style="shape=partialRectangle;connectable=0;fillColor=#f8cecc;top=0;left=0;bottom=0;right=0;fontStyle=1;overflow=hidden;strokeColor=#b85450;fontSize=13;" vertex="1" parent="r_fly-AJpgiWsE7_w21V-2">
          <mxGeometry width="60" height="30" as="geometry" />
        </mxCell>
        <mxCell id="r_fly-AJpgiWsE7_w21V-4" value="하루 중 가장 인상 깊었던 코드, 잘 정리된 코드 업로드" style="shape=partialRectangle;connectable=0;fillColor=#f8cecc;top=0;left=0;bottom=0;right=0;align=left;spacingLeft=6;fontStyle=5;overflow=hidden;strokeColor=#b85450;fontSize=13;" vertex="1" parent="r_fly-AJpgiWsE7_w21V-2">
          <mxGeometry x="60" width="290" height="30" as="geometry" />
        </mxCell>
        <mxCell id="r_fly-AJpgiWsE7_w21V-5" value="" style="shape=partialRectangle;collapsible=0;dropTarget=0;pointerEvents=0;fillColor=none;top=0;left=0;bottom=1;right=0;points=[[0,0.5],[1,0.5]];portConstraint=eastwest;" vertex="1" parent="r_fly-AJpgiWsE7_w21V-1">
          <mxGeometry y="60" width="350" height="30" as="geometry" />
        </mxCell>
        <mxCell id="r_fly-AJpgiWsE7_w21V-6" value="Role2" style="shape=partialRectangle;connectable=0;fillColor=#f8cecc;top=0;left=0;bottom=0;right=0;fontStyle=1;overflow=hidden;strokeColor=#b85450;" vertex="1" parent="r_fly-AJpgiWsE7_w21V-5">
          <mxGeometry width="60" height="30" as="geometry" />
        </mxCell>
        <mxCell id="r_fly-AJpgiWsE7_w21V-7" value="팀 프로젝트 " style="shape=partialRectangle;connectable=0;fillColor=#f8cecc;top=0;left=0;bottom=0;right=0;align=left;spacingLeft=6;fontStyle=5;overflow=hidden;strokeColor=#b85450;" vertex="1" parent="r_fly-AJpgiWsE7_w21V-5">
          <mxGeometry x="60" width="290" height="30" as="geometry" />
        </mxCell>
        <mxCell id="r_fly-AJpgiWsE7_w21V-8" value="" style="shape=partialRectangle;collapsible=0;dropTarget=0;pointerEvents=0;fillColor=none;top=0;left=0;bottom=0;right=0;points=[[0,0.5],[1,0.5]];portConstraint=eastwest;" vertex="1" parent="r_fly-AJpgiWsE7_w21V-1">
          <mxGeometry y="90" width="350" height="30" as="geometry" />
        </mxCell>
        <mxCell id="r_fly-AJpgiWsE7_w21V-9" value="Role3" style="shape=partialRectangle;connectable=0;fillColor=none;top=0;left=0;bottom=0;right=0;editable=1;overflow=hidden;fontStyle=1" vertex="1" parent="r_fly-AJpgiWsE7_w21V-8">
          <mxGeometry width="60" height="30" as="geometry" />
        </mxCell>
        <mxCell id="r_fly-AJpgiWsE7_w21V-10" value="다른 사람 코드 분석" style="shape=partialRectangle;connectable=0;fillColor=none;top=0;left=0;bottom=0;right=0;align=left;spacingLeft=6;overflow=hidden;fontStyle=1" vertex="1" parent="r_fly-AJpgiWsE7_w21V-8">
          <mxGeometry x="60" width="290" height="30" as="geometry" />
        </mxCell>
        <mxCell id="r_fly-AJpgiWsE7_w21V-11" value="" style="shape=partialRectangle;collapsible=0;dropTarget=0;pointerEvents=0;fillColor=none;top=0;left=0;bottom=0;right=0;points=[[0,0.5],[1,0.5]];portConstraint=eastwest;" vertex="1" parent="r_fly-AJpgiWsE7_w21V-1">
          <mxGeometry y="120" width="350" height="30" as="geometry" />
        </mxCell>
        <mxCell id="r_fly-AJpgiWsE7_w21V-12" value="" style="shape=partialRectangle;connectable=0;fillColor=none;top=0;left=0;bottom=0;right=0;editable=1;overflow=hidden;" vertex="1" parent="r_fly-AJpgiWsE7_w21V-11">
          <mxGeometry width="60" height="30" as="geometry" />
        </mxCell>
        <mxCell id="r_fly-AJpgiWsE7_w21V-13" value="" style="shape=partialRectangle;connectable=0;fillColor=none;top=0;left=0;bottom=0;right=0;align=left;spacingLeft=6;overflow=hidden;" vertex="1" parent="r_fly-AJpgiWsE7_w21V-11">
          <mxGeometry x="60" width="290" height="30" as="geometry" />
        </mxCell>
        <mxCell id="r_fly-AJpgiWsE7_w21V-130" style="edgeStyle=orthogonalEdgeStyle;rounded=0;orthogonalLoop=1;jettySize=auto;html=1;exitX=0.5;exitY=1;exitDx=0;exitDy=0;entryX=0.5;entryY=0;entryDx=0;entryDy=0;fontSize=13;fontColor=#FFFF66;" edge="1" parent="1" source="r_fly-AJpgiWsE7_w21V-21" target="r_fly-AJpgiWsE7_w21V-111">
          <mxGeometry relative="1" as="geometry" />
        </mxCell>
        <mxCell id="r_fly-AJpgiWsE7_w21V-21" value="Memo" style="shape=table;startSize=30;container=1;collapsible=1;childLayout=tableLayout;fixedRows=1;rowLines=0;fontStyle=1;align=center;resizeLast=1;fillColor=#fff2cc;strokeColor=#d6b656;" vertex="1" parent="1">
          <mxGeometry x="105" y="320" width="180" height="160" as="geometry" />
        </mxCell>
        <mxCell id="r_fly-AJpgiWsE7_w21V-22" value="" style="shape=partialRectangle;collapsible=0;dropTarget=0;pointerEvents=0;fillColor=none;top=0;left=0;bottom=0;right=0;points=[[0,0.5],[1,0.5]];portConstraint=eastwest;" vertex="1" parent="r_fly-AJpgiWsE7_w21V-21">
          <mxGeometry y="30" width="180" height="30" as="geometry" />
        </mxCell>
        <mxCell id="r_fly-AJpgiWsE7_w21V-23" value="Role1" style="shape=partialRectangle;connectable=0;fillColor=none;top=0;left=0;bottom=0;right=0;fontStyle=1;overflow=hidden;" vertex="1" parent="r_fly-AJpgiWsE7_w21V-22">
          <mxGeometry width="60" height="30" as="geometry" />
        </mxCell>
        <mxCell id="r_fly-AJpgiWsE7_w21V-24" value="필요한 API 정리" style="shape=partialRectangle;connectable=0;fillColor=none;top=0;left=0;bottom=0;right=0;align=left;spacingLeft=6;fontStyle=5;overflow=hidden;" vertex="1" parent="r_fly-AJpgiWsE7_w21V-22">
          <mxGeometry x="60" width="120" height="30" as="geometry" />
        </mxCell>
        <mxCell id="r_fly-AJpgiWsE7_w21V-25" value="" style="shape=partialRectangle;collapsible=0;dropTarget=0;pointerEvents=0;fillColor=none;top=0;left=0;bottom=1;right=0;points=[[0,0.5],[1,0.5]];portConstraint=eastwest;" vertex="1" parent="r_fly-AJpgiWsE7_w21V-21">
          <mxGeometry y="60" width="180" height="30" as="geometry" />
        </mxCell>
        <mxCell id="r_fly-AJpgiWsE7_w21V-26" value="Role2" style="shape=partialRectangle;connectable=0;fillColor=none;top=0;left=0;bottom=0;right=0;fontStyle=1;overflow=hidden;" vertex="1" parent="r_fly-AJpgiWsE7_w21V-25">
          <mxGeometry width="60" height="30" as="geometry" />
        </mxCell>
        <mxCell id="r_fly-AJpgiWsE7_w21V-27" value="함수 정리" style="shape=partialRectangle;connectable=0;fillColor=none;top=0;left=0;bottom=0;right=0;align=left;spacingLeft=6;fontStyle=5;overflow=hidden;" vertex="1" parent="r_fly-AJpgiWsE7_w21V-25">
          <mxGeometry x="60" width="120" height="30" as="geometry" />
        </mxCell>
        <mxCell id="r_fly-AJpgiWsE7_w21V-28" value="" style="shape=partialRectangle;collapsible=0;dropTarget=0;pointerEvents=0;fillColor=none;top=0;left=0;bottom=0;right=0;points=[[0,0.5],[1,0.5]];portConstraint=eastwest;" vertex="1" parent="r_fly-AJpgiWsE7_w21V-21">
          <mxGeometry y="90" width="180" height="30" as="geometry" />
        </mxCell>
        <mxCell id="r_fly-AJpgiWsE7_w21V-29" value="" style="shape=partialRectangle;connectable=0;fillColor=none;top=0;left=0;bottom=0;right=0;editable=1;overflow=hidden;" vertex="1" parent="r_fly-AJpgiWsE7_w21V-28">
          <mxGeometry width="60" height="30" as="geometry" />
        </mxCell>
        <mxCell id="r_fly-AJpgiWsE7_w21V-30" value="" style="shape=partialRectangle;connectable=0;fillColor=none;top=0;left=0;bottom=0;right=0;align=left;spacingLeft=6;overflow=hidden;" vertex="1" parent="r_fly-AJpgiWsE7_w21V-28">
          <mxGeometry x="60" width="120" height="30" as="geometry" />
        </mxCell>
        <mxCell id="r_fly-AJpgiWsE7_w21V-31" value="" style="shape=partialRectangle;collapsible=0;dropTarget=0;pointerEvents=0;fillColor=none;top=0;left=0;bottom=0;right=0;points=[[0,0.5],[1,0.5]];portConstraint=eastwest;" vertex="1" parent="r_fly-AJpgiWsE7_w21V-21">
          <mxGeometry y="120" width="180" height="30" as="geometry" />
        </mxCell>
        <mxCell id="r_fly-AJpgiWsE7_w21V-32" value="" style="shape=partialRectangle;connectable=0;fillColor=none;top=0;left=0;bottom=0;right=0;editable=1;overflow=hidden;" vertex="1" parent="r_fly-AJpgiWsE7_w21V-31">
          <mxGeometry width="60" height="30" as="geometry" />
        </mxCell>
        <mxCell id="r_fly-AJpgiWsE7_w21V-33" value="" style="shape=partialRectangle;connectable=0;fillColor=none;top=0;left=0;bottom=0;right=0;align=left;spacingLeft=6;overflow=hidden;" vertex="1" parent="r_fly-AJpgiWsE7_w21V-31">
          <mxGeometry x="60" width="120" height="30" as="geometry" />
        </mxCell>
        <mxCell id="r_fly-AJpgiWsE7_w21V-129" style="edgeStyle=orthogonalEdgeStyle;rounded=0;orthogonalLoop=1;jettySize=auto;html=1;exitX=0.5;exitY=1;exitDx=0;exitDy=0;entryX=0.5;entryY=0;entryDx=0;entryDy=0;fontSize=13;fontColor=#FFFF66;" edge="1" parent="1" source="r_fly-AJpgiWsE7_w21V-40" target="r_fly-AJpgiWsE7_w21V-21">
          <mxGeometry relative="1" as="geometry" />
        </mxCell>
        <mxCell id="r_fly-AJpgiWsE7_w21V-40" value="Jupyter(trial)" style="shape=table;startSize=30;container=1;collapsible=1;childLayout=tableLayout;fixedRows=1;rowLines=0;fontStyle=1;align=center;resizeLast=1;fillColor=#fff2cc;strokeColor=#d6b656;" vertex="1" parent="1">
          <mxGeometry x="105" y="130" width="180" height="160" as="geometry" />
        </mxCell>
        <mxCell id="r_fly-AJpgiWsE7_w21V-41" value="" style="shape=partialRectangle;collapsible=0;dropTarget=0;pointerEvents=0;fillColor=none;top=0;left=0;bottom=0;right=0;points=[[0,0.5],[1,0.5]];portConstraint=eastwest;" vertex="1" parent="r_fly-AJpgiWsE7_w21V-40">
          <mxGeometry y="30" width="180" height="30" as="geometry" />
        </mxCell>
        <mxCell id="r_fly-AJpgiWsE7_w21V-42" value="Role1" style="shape=partialRectangle;connectable=0;fillColor=none;top=0;left=0;bottom=0;right=0;fontStyle=1;overflow=hidden;" vertex="1" parent="r_fly-AJpgiWsE7_w21V-41">
          <mxGeometry width="60" height="30" as="geometry" />
        </mxCell>
        <mxCell id="r_fly-AJpgiWsE7_w21V-43" value="코드 trial" style="shape=partialRectangle;connectable=0;fillColor=none;top=0;left=0;bottom=0;right=0;align=left;spacingLeft=6;fontStyle=5;overflow=hidden;" vertex="1" parent="r_fly-AJpgiWsE7_w21V-41">
          <mxGeometry x="60" width="120" height="30" as="geometry" />
        </mxCell>
        <mxCell id="r_fly-AJpgiWsE7_w21V-44" value="" style="shape=partialRectangle;collapsible=0;dropTarget=0;pointerEvents=0;fillColor=none;top=0;left=0;bottom=1;right=0;points=[[0,0.5],[1,0.5]];portConstraint=eastwest;" vertex="1" parent="r_fly-AJpgiWsE7_w21V-40">
          <mxGeometry y="60" width="180" height="30" as="geometry" />
        </mxCell>
        <mxCell id="r_fly-AJpgiWsE7_w21V-45" value="" style="shape=partialRectangle;connectable=0;fillColor=none;top=0;left=0;bottom=0;right=0;fontStyle=1;overflow=hidden;" vertex="1" parent="r_fly-AJpgiWsE7_w21V-44">
          <mxGeometry width="60" height="30" as="geometry" />
        </mxCell>
        <mxCell id="r_fly-AJpgiWsE7_w21V-46" value="" style="shape=partialRectangle;connectable=0;fillColor=none;top=0;left=0;bottom=0;right=0;align=left;spacingLeft=6;fontStyle=5;overflow=hidden;" vertex="1" parent="r_fly-AJpgiWsE7_w21V-44">
          <mxGeometry x="60" width="120" height="30" as="geometry" />
        </mxCell>
        <mxCell id="r_fly-AJpgiWsE7_w21V-47" value="" style="shape=partialRectangle;collapsible=0;dropTarget=0;pointerEvents=0;fillColor=none;top=0;left=0;bottom=0;right=0;points=[[0,0.5],[1,0.5]];portConstraint=eastwest;" vertex="1" parent="r_fly-AJpgiWsE7_w21V-40">
          <mxGeometry y="90" width="180" height="20" as="geometry" />
        </mxCell>
        <mxCell id="r_fly-AJpgiWsE7_w21V-48" value="" style="shape=partialRectangle;connectable=0;fillColor=none;top=0;left=0;bottom=0;right=0;editable=1;overflow=hidden;" vertex="1" parent="r_fly-AJpgiWsE7_w21V-47">
          <mxGeometry width="60" height="20" as="geometry" />
        </mxCell>
        <mxCell id="r_fly-AJpgiWsE7_w21V-49" value="" style="shape=partialRectangle;connectable=0;fillColor=none;top=0;left=0;bottom=0;right=0;align=left;spacingLeft=6;overflow=hidden;" vertex="1" parent="r_fly-AJpgiWsE7_w21V-47">
          <mxGeometry x="60" width="120" height="20" as="geometry" />
        </mxCell>
        <mxCell id="r_fly-AJpgiWsE7_w21V-50" value="" style="shape=partialRectangle;collapsible=0;dropTarget=0;pointerEvents=0;fillColor=none;top=0;left=0;bottom=0;right=0;points=[[0,0.5],[1,0.5]];portConstraint=eastwest;" vertex="1" parent="r_fly-AJpgiWsE7_w21V-40">
          <mxGeometry y="110" width="180" height="40" as="geometry" />
        </mxCell>
        <mxCell id="r_fly-AJpgiWsE7_w21V-51" value="" style="shape=partialRectangle;connectable=0;fillColor=none;top=0;left=0;bottom=0;right=0;editable=1;overflow=hidden;" vertex="1" parent="r_fly-AJpgiWsE7_w21V-50">
          <mxGeometry width="60" height="40" as="geometry" />
        </mxCell>
        <mxCell id="r_fly-AJpgiWsE7_w21V-52" value="" style="shape=partialRectangle;connectable=0;fillColor=none;top=0;left=0;bottom=0;right=0;align=left;spacingLeft=6;overflow=hidden;" vertex="1" parent="r_fly-AJpgiWsE7_w21V-50">
          <mxGeometry x="60" width="120" height="40" as="geometry" />
        </mxCell>
        <mxCell id="r_fly-AJpgiWsE7_w21V-54" value="Notion" style="shape=table;startSize=30;container=1;collapsible=1;childLayout=tableLayout;fixedRows=1;rowLines=0;fontStyle=1;align=center;resizeLast=1;fillColor=#fa6800;strokeColor=#C73500;fontColor=#ffffff;" vertex="1" parent="1">
          <mxGeometry x="425" y="140" width="310" height="150" as="geometry" />
        </mxCell>
        <mxCell id="r_fly-AJpgiWsE7_w21V-55" value="" style="shape=partialRectangle;collapsible=0;dropTarget=0;pointerEvents=0;fillColor=none;top=0;left=0;bottom=0;right=0;points=[[0,0.5],[1,0.5]];portConstraint=eastwest;" vertex="1" parent="r_fly-AJpgiWsE7_w21V-54">
          <mxGeometry y="30" width="310" height="30" as="geometry" />
        </mxCell>
        <mxCell id="r_fly-AJpgiWsE7_w21V-56" value="Role1" style="shape=partialRectangle;connectable=0;fillColor=none;top=0;left=0;bottom=0;right=0;fontStyle=1;overflow=hidden;" vertex="1" parent="r_fly-AJpgiWsE7_w21V-55">
          <mxGeometry width="60" height="30" as="geometry" />
        </mxCell>
        <mxCell id="r_fly-AJpgiWsE7_w21V-57" value="하루 일지" style="shape=partialRectangle;connectable=0;fillColor=none;top=0;left=0;bottom=0;right=0;align=left;spacingLeft=6;fontStyle=5;overflow=hidden;" vertex="1" parent="r_fly-AJpgiWsE7_w21V-55">
          <mxGeometry x="60" width="250" height="30" as="geometry" />
        </mxCell>
        <mxCell id="r_fly-AJpgiWsE7_w21V-58" value="" style="shape=partialRectangle;collapsible=0;dropTarget=0;pointerEvents=0;fillColor=none;top=0;left=0;bottom=1;right=0;points=[[0,0.5],[1,0.5]];portConstraint=eastwest;" vertex="1" parent="r_fly-AJpgiWsE7_w21V-54">
          <mxGeometry y="60" width="310" height="30" as="geometry" />
        </mxCell>
        <mxCell id="r_fly-AJpgiWsE7_w21V-59" value="" style="shape=partialRectangle;connectable=0;fillColor=none;top=0;left=0;bottom=0;right=0;fontStyle=1;overflow=hidden;" vertex="1" parent="r_fly-AJpgiWsE7_w21V-58">
          <mxGeometry width="60" height="30" as="geometry" />
        </mxCell>
        <mxCell id="r_fly-AJpgiWsE7_w21V-60" value="GitHub, Tstory 등 다른 어플에 무엇을 했는지 " style="shape=partialRectangle;connectable=0;fillColor=none;top=0;left=0;bottom=0;right=0;align=left;spacingLeft=6;fontStyle=5;overflow=hidden;" vertex="1" parent="r_fly-AJpgiWsE7_w21V-58">
          <mxGeometry x="60" width="250" height="30" as="geometry" />
        </mxCell>
        <mxCell id="r_fly-AJpgiWsE7_w21V-61" value="" style="shape=partialRectangle;collapsible=0;dropTarget=0;pointerEvents=0;fillColor=none;top=0;left=0;bottom=0;right=0;points=[[0,0.5],[1,0.5]];portConstraint=eastwest;" vertex="1" parent="r_fly-AJpgiWsE7_w21V-54">
          <mxGeometry y="90" width="310" height="30" as="geometry" />
        </mxCell>
        <mxCell id="r_fly-AJpgiWsE7_w21V-62" value="" style="shape=partialRectangle;connectable=0;fillColor=none;top=0;left=0;bottom=0;right=0;editable=1;overflow=hidden;" vertex="1" parent="r_fly-AJpgiWsE7_w21V-61">
          <mxGeometry width="60" height="30" as="geometry" />
        </mxCell>
        <mxCell id="r_fly-AJpgiWsE7_w21V-63" value="" style="shape=partialRectangle;connectable=0;fillColor=none;top=0;left=0;bottom=0;right=0;align=left;spacingLeft=6;overflow=hidden;" vertex="1" parent="r_fly-AJpgiWsE7_w21V-61">
          <mxGeometry x="60" width="250" height="30" as="geometry" />
        </mxCell>
        <mxCell id="r_fly-AJpgiWsE7_w21V-64" value="" style="shape=partialRectangle;collapsible=0;dropTarget=0;pointerEvents=0;fillColor=none;top=0;left=0;bottom=0;right=0;points=[[0,0.5],[1,0.5]];portConstraint=eastwest;" vertex="1" parent="r_fly-AJpgiWsE7_w21V-54">
          <mxGeometry y="120" width="310" height="30" as="geometry" />
        </mxCell>
        <mxCell id="r_fly-AJpgiWsE7_w21V-65" value="" style="shape=partialRectangle;connectable=0;fillColor=none;top=0;left=0;bottom=0;right=0;editable=1;overflow=hidden;" vertex="1" parent="r_fly-AJpgiWsE7_w21V-64">
          <mxGeometry width="60" height="30" as="geometry" />
        </mxCell>
        <mxCell id="r_fly-AJpgiWsE7_w21V-66" value="" style="shape=partialRectangle;connectable=0;fillColor=none;top=0;left=0;bottom=0;right=0;align=left;spacingLeft=6;overflow=hidden;" vertex="1" parent="r_fly-AJpgiWsE7_w21V-64">
          <mxGeometry x="60" width="250" height="30" as="geometry" />
        </mxCell>
        <mxCell id="r_fly-AJpgiWsE7_w21V-80" value="Tstory" style="shape=table;startSize=30;container=1;collapsible=1;childLayout=tableLayout;fixedRows=1;rowLines=0;fontStyle=1;align=center;resizeLast=1;fillColor=#e51400;strokeColor=#B20000;fontColor=#ffffff;" vertex="1" parent="1">
          <mxGeometry x="435" y="380" width="290" height="160" as="geometry">
            <mxRectangle x="430" y="330" width="70" height="30" as="alternateBounds" />
          </mxGeometry>
        </mxCell>
        <mxCell id="r_fly-AJpgiWsE7_w21V-81" value="" style="shape=partialRectangle;collapsible=0;dropTarget=0;pointerEvents=0;fillColor=none;top=0;left=0;bottom=0;right=0;points=[[0,0.5],[1,0.5]];portConstraint=eastwest;" vertex="1" parent="r_fly-AJpgiWsE7_w21V-80">
          <mxGeometry y="30" width="290" height="30" as="geometry" />
        </mxCell>
        <mxCell id="r_fly-AJpgiWsE7_w21V-82" value="Role1" style="shape=partialRectangle;connectable=0;fillColor=none;top=0;left=0;bottom=0;right=0;fontStyle=1;overflow=hidden;" vertex="1" parent="r_fly-AJpgiWsE7_w21V-81">
          <mxGeometry width="60" height="30" as="geometry" />
        </mxCell>
        <mxCell id="r_fly-AJpgiWsE7_w21V-83" value="실용있는 코드 배포" style="shape=partialRectangle;connectable=0;fillColor=none;top=0;left=0;bottom=0;right=0;align=left;spacingLeft=6;fontStyle=5;overflow=hidden;" vertex="1" parent="r_fly-AJpgiWsE7_w21V-81">
          <mxGeometry x="60" width="230" height="30" as="geometry" />
        </mxCell>
        <mxCell id="r_fly-AJpgiWsE7_w21V-84" value="" style="shape=partialRectangle;collapsible=0;dropTarget=0;pointerEvents=0;fillColor=none;top=0;left=0;bottom=1;right=0;points=[[0,0.5],[1,0.5]];portConstraint=eastwest;" vertex="1" parent="r_fly-AJpgiWsE7_w21V-80">
          <mxGeometry y="60" width="290" height="30" as="geometry" />
        </mxCell>
        <mxCell id="r_fly-AJpgiWsE7_w21V-85" value="Role2" style="shape=partialRectangle;connectable=0;fillColor=none;top=0;left=0;bottom=0;right=0;fontStyle=1;overflow=hidden;" vertex="1" parent="r_fly-AJpgiWsE7_w21V-84">
          <mxGeometry width="60" height="30" as="geometry" />
        </mxCell>
        <mxCell id="r_fly-AJpgiWsE7_w21V-86" value="커리어 정리." style="shape=partialRectangle;connectable=0;fillColor=none;top=0;left=0;bottom=0;right=0;align=left;spacingLeft=6;fontStyle=5;overflow=hidden;" vertex="1" parent="r_fly-AJpgiWsE7_w21V-84">
          <mxGeometry x="60" width="230" height="30" as="geometry" />
        </mxCell>
        <mxCell id="r_fly-AJpgiWsE7_w21V-87" value="" style="shape=partialRectangle;collapsible=0;dropTarget=0;pointerEvents=0;fillColor=none;top=0;left=0;bottom=0;right=0;points=[[0,0.5],[1,0.5]];portConstraint=eastwest;" vertex="1" parent="r_fly-AJpgiWsE7_w21V-80">
          <mxGeometry y="90" width="290" height="30" as="geometry" />
        </mxCell>
        <mxCell id="r_fly-AJpgiWsE7_w21V-88" value="" style="shape=partialRectangle;connectable=0;fillColor=none;top=0;left=0;bottom=0;right=0;editable=1;overflow=hidden;" vertex="1" parent="r_fly-AJpgiWsE7_w21V-87">
          <mxGeometry width="60" height="30" as="geometry" />
        </mxCell>
        <mxCell id="r_fly-AJpgiWsE7_w21V-89" value="" style="shape=partialRectangle;connectable=0;fillColor=none;top=0;left=0;bottom=0;right=0;align=left;spacingLeft=6;overflow=hidden;" vertex="1" parent="r_fly-AJpgiWsE7_w21V-87">
          <mxGeometry x="60" width="230" height="30" as="geometry" />
        </mxCell>
        <mxCell id="r_fly-AJpgiWsE7_w21V-90" value="" style="shape=partialRectangle;collapsible=0;dropTarget=0;pointerEvents=0;fillColor=none;top=0;left=0;bottom=0;right=0;points=[[0,0.5],[1,0.5]];portConstraint=eastwest;" vertex="1" parent="r_fly-AJpgiWsE7_w21V-80">
          <mxGeometry y="120" width="290" height="30" as="geometry" />
        </mxCell>
        <mxCell id="r_fly-AJpgiWsE7_w21V-91" value="" style="shape=partialRectangle;connectable=0;fillColor=none;top=0;left=0;bottom=0;right=0;editable=1;overflow=hidden;" vertex="1" parent="r_fly-AJpgiWsE7_w21V-90">
          <mxGeometry width="60" height="30" as="geometry" />
        </mxCell>
        <mxCell id="r_fly-AJpgiWsE7_w21V-92" value="" style="shape=partialRectangle;connectable=0;fillColor=none;top=0;left=0;bottom=0;right=0;align=left;spacingLeft=6;overflow=hidden;" vertex="1" parent="r_fly-AJpgiWsE7_w21V-90">
          <mxGeometry x="60" width="230" height="30" as="geometry" />
        </mxCell>
        <mxCell id="r_fly-AJpgiWsE7_w21V-132" style="edgeStyle=orthogonalEdgeStyle;rounded=0;orthogonalLoop=1;jettySize=auto;html=1;exitX=0.5;exitY=1;exitDx=0;exitDy=0;entryX=0.5;entryY=0;entryDx=0;entryDy=0;fontSize=13;fontColor=#FFFF66;" edge="1" parent="1" source="r_fly-AJpgiWsE7_w21V-93" target="r_fly-AJpgiWsE7_w21V-1">
          <mxGeometry relative="1" as="geometry" />
        </mxCell>
        <mxCell id="r_fly-AJpgiWsE7_w21V-93" value="Draw io" style="shape=table;startSize=30;container=1;collapsible=1;childLayout=tableLayout;fixedRows=1;rowLines=0;fontStyle=1;align=center;resizeLast=1;fillColor=#e3c800;strokeColor=#B09500;fontColor=#ffffff;" vertex="1" parent="1">
          <mxGeometry x="105" y="700" width="180" height="150" as="geometry" />
        </mxCell>
        <mxCell id="r_fly-AJpgiWsE7_w21V-94" value="" style="shape=partialRectangle;collapsible=0;dropTarget=0;pointerEvents=0;fillColor=none;top=0;left=0;bottom=0;right=0;points=[[0,0.5],[1,0.5]];portConstraint=eastwest;" vertex="1" parent="r_fly-AJpgiWsE7_w21V-93">
          <mxGeometry y="30" width="180" height="40" as="geometry" />
        </mxCell>
        <mxCell id="r_fly-AJpgiWsE7_w21V-95" value="Role 1" style="shape=partialRectangle;connectable=0;fillColor=none;top=0;left=0;bottom=0;right=0;fontStyle=1;overflow=hidden;" vertex="1" parent="r_fly-AJpgiWsE7_w21V-94">
          <mxGeometry width="60" height="40" as="geometry" />
        </mxCell>
        <mxCell id="r_fly-AJpgiWsE7_w21V-96" value="정리된 코드 도식화" style="shape=partialRectangle;connectable=0;fillColor=none;top=0;left=0;bottom=0;right=0;align=left;spacingLeft=6;fontStyle=5;overflow=hidden;" vertex="1" parent="r_fly-AJpgiWsE7_w21V-94">
          <mxGeometry x="60" width="120" height="40" as="geometry" />
        </mxCell>
        <mxCell id="r_fly-AJpgiWsE7_w21V-97" value="" style="shape=partialRectangle;collapsible=0;dropTarget=0;pointerEvents=0;fillColor=none;top=0;left=0;bottom=1;right=0;points=[[0,0.5],[1,0.5]];portConstraint=eastwest;" vertex="1" parent="r_fly-AJpgiWsE7_w21V-93">
          <mxGeometry y="70" width="180" height="20" as="geometry" />
        </mxCell>
        <mxCell id="r_fly-AJpgiWsE7_w21V-98" value="PK,FK2" style="shape=partialRectangle;connectable=0;fillColor=none;top=0;left=0;bottom=0;right=0;fontStyle=1;overflow=hidden;" vertex="1" parent="r_fly-AJpgiWsE7_w21V-97">
          <mxGeometry width="60" height="20" as="geometry" />
        </mxCell>
        <mxCell id="r_fly-AJpgiWsE7_w21V-99" value="Row 2" style="shape=partialRectangle;connectable=0;fillColor=none;top=0;left=0;bottom=0;right=0;align=left;spacingLeft=6;fontStyle=5;overflow=hidden;" vertex="1" parent="r_fly-AJpgiWsE7_w21V-97">
          <mxGeometry x="60" width="120" height="20" as="geometry" />
        </mxCell>
        <mxCell id="r_fly-AJpgiWsE7_w21V-100" value="" style="shape=partialRectangle;collapsible=0;dropTarget=0;pointerEvents=0;fillColor=none;top=0;left=0;bottom=0;right=0;points=[[0,0.5],[1,0.5]];portConstraint=eastwest;" vertex="1" parent="r_fly-AJpgiWsE7_w21V-93">
          <mxGeometry y="90" width="180" height="30" as="geometry" />
        </mxCell>
        <mxCell id="r_fly-AJpgiWsE7_w21V-101" value="" style="shape=partialRectangle;connectable=0;fillColor=none;top=0;left=0;bottom=0;right=0;editable=1;overflow=hidden;" vertex="1" parent="r_fly-AJpgiWsE7_w21V-100">
          <mxGeometry width="60" height="30" as="geometry" />
        </mxCell>
        <mxCell id="r_fly-AJpgiWsE7_w21V-102" value="" style="shape=partialRectangle;connectable=0;fillColor=none;top=0;left=0;bottom=0;right=0;align=left;spacingLeft=6;overflow=hidden;" vertex="1" parent="r_fly-AJpgiWsE7_w21V-100">
          <mxGeometry x="60" width="120" height="30" as="geometry" />
        </mxCell>
        <mxCell id="r_fly-AJpgiWsE7_w21V-103" value="" style="shape=partialRectangle;collapsible=0;dropTarget=0;pointerEvents=0;fillColor=none;top=0;left=0;bottom=0;right=0;points=[[0,0.5],[1,0.5]];portConstraint=eastwest;" vertex="1" parent="r_fly-AJpgiWsE7_w21V-93">
          <mxGeometry y="120" width="180" height="20" as="geometry" />
        </mxCell>
        <mxCell id="r_fly-AJpgiWsE7_w21V-104" value="" style="shape=partialRectangle;connectable=0;fillColor=none;top=0;left=0;bottom=0;right=0;editable=1;overflow=hidden;" vertex="1" parent="r_fly-AJpgiWsE7_w21V-103">
          <mxGeometry width="60" height="20" as="geometry" />
        </mxCell>
        <mxCell id="r_fly-AJpgiWsE7_w21V-105" value="" style="shape=partialRectangle;connectable=0;fillColor=none;top=0;left=0;bottom=0;right=0;align=left;spacingLeft=6;overflow=hidden;" vertex="1" parent="r_fly-AJpgiWsE7_w21V-103">
          <mxGeometry x="60" width="120" height="20" as="geometry" />
        </mxCell>
        <mxCell id="r_fly-AJpgiWsE7_w21V-131" style="edgeStyle=orthogonalEdgeStyle;rounded=0;orthogonalLoop=1;jettySize=auto;html=1;exitX=0.5;exitY=1;exitDx=0;exitDy=0;entryX=0.5;entryY=0;entryDx=0;entryDy=0;fontSize=13;fontColor=#FFFF66;" edge="1" parent="1" source="r_fly-AJpgiWsE7_w21V-111" target="r_fly-AJpgiWsE7_w21V-93">
          <mxGeometry relative="1" as="geometry" />
        </mxCell>
        <mxCell id="r_fly-AJpgiWsE7_w21V-111" value="Jupyter(good to distribute)" style="shape=table;startSize=30;container=1;collapsible=1;childLayout=tableLayout;fixedRows=1;rowLines=0;fontStyle=1;align=center;resizeLast=1;fillColor=#fff2cc;strokeColor=#d6b656;" vertex="1" parent="1">
          <mxGeometry x="105" y="510" width="180" height="160" as="geometry" />
        </mxCell>
        <mxCell id="r_fly-AJpgiWsE7_w21V-112" value="" style="shape=partialRectangle;collapsible=0;dropTarget=0;pointerEvents=0;fillColor=none;top=0;left=0;bottom=0;right=0;points=[[0,0.5],[1,0.5]];portConstraint=eastwest;" vertex="1" parent="r_fly-AJpgiWsE7_w21V-111">
          <mxGeometry y="30" width="180" height="30" as="geometry" />
        </mxCell>
        <mxCell id="r_fly-AJpgiWsE7_w21V-113" value="Role1" style="shape=partialRectangle;connectable=0;fillColor=none;top=0;left=0;bottom=0;right=0;fontStyle=1;overflow=hidden;" vertex="1" parent="r_fly-AJpgiWsE7_w21V-112">
          <mxGeometry width="60" height="30" as="geometry" />
        </mxCell>
        <mxCell id="r_fly-AJpgiWsE7_w21V-114" value="코드정리" style="shape=partialRectangle;connectable=0;fillColor=none;top=0;left=0;bottom=0;right=0;align=left;spacingLeft=6;fontStyle=5;overflow=hidden;" vertex="1" parent="r_fly-AJpgiWsE7_w21V-112">
          <mxGeometry x="60" width="120" height="30" as="geometry" />
        </mxCell>
        <mxCell id="r_fly-AJpgiWsE7_w21V-115" value="" style="shape=partialRectangle;collapsible=0;dropTarget=0;pointerEvents=0;fillColor=none;top=0;left=0;bottom=1;right=0;points=[[0,0.5],[1,0.5]];portConstraint=eastwest;" vertex="1" parent="r_fly-AJpgiWsE7_w21V-111">
          <mxGeometry y="60" width="180" height="30" as="geometry" />
        </mxCell>
        <mxCell id="r_fly-AJpgiWsE7_w21V-116" value="" style="shape=partialRectangle;connectable=0;fillColor=none;top=0;left=0;bottom=0;right=0;fontStyle=1;overflow=hidden;" vertex="1" parent="r_fly-AJpgiWsE7_w21V-115">
          <mxGeometry width="60" height="30" as="geometry" />
        </mxCell>
        <mxCell id="r_fly-AJpgiWsE7_w21V-117" value="" style="shape=partialRectangle;connectable=0;fillColor=none;top=0;left=0;bottom=0;right=0;align=left;spacingLeft=6;fontStyle=5;overflow=hidden;" vertex="1" parent="r_fly-AJpgiWsE7_w21V-115">
          <mxGeometry x="60" width="120" height="30" as="geometry" />
        </mxCell>
        <mxCell id="r_fly-AJpgiWsE7_w21V-118" value="" style="shape=partialRectangle;collapsible=0;dropTarget=0;pointerEvents=0;fillColor=none;top=0;left=0;bottom=0;right=0;points=[[0,0.5],[1,0.5]];portConstraint=eastwest;" vertex="1" parent="r_fly-AJpgiWsE7_w21V-111">
          <mxGeometry y="90" width="180" height="20" as="geometry" />
        </mxCell>
        <mxCell id="r_fly-AJpgiWsE7_w21V-119" value="" style="shape=partialRectangle;connectable=0;fillColor=none;top=0;left=0;bottom=0;right=0;editable=1;overflow=hidden;" vertex="1" parent="r_fly-AJpgiWsE7_w21V-118">
          <mxGeometry width="60" height="20" as="geometry" />
        </mxCell>
        <mxCell id="r_fly-AJpgiWsE7_w21V-120" value="" style="shape=partialRectangle;connectable=0;fillColor=none;top=0;left=0;bottom=0;right=0;align=left;spacingLeft=6;overflow=hidden;" vertex="1" parent="r_fly-AJpgiWsE7_w21V-118">
          <mxGeometry x="60" width="120" height="20" as="geometry" />
        </mxCell>
        <mxCell id="r_fly-AJpgiWsE7_w21V-121" value="" style="shape=partialRectangle;collapsible=0;dropTarget=0;pointerEvents=0;fillColor=none;top=0;left=0;bottom=0;right=0;points=[[0,0.5],[1,0.5]];portConstraint=eastwest;" vertex="1" parent="r_fly-AJpgiWsE7_w21V-111">
          <mxGeometry y="110" width="180" height="40" as="geometry" />
        </mxCell>
        <mxCell id="r_fly-AJpgiWsE7_w21V-122" value="" style="shape=partialRectangle;connectable=0;fillColor=none;top=0;left=0;bottom=0;right=0;editable=1;overflow=hidden;" vertex="1" parent="r_fly-AJpgiWsE7_w21V-121">
          <mxGeometry width="60" height="40" as="geometry" />
        </mxCell>
        <mxCell id="r_fly-AJpgiWsE7_w21V-123" value="" style="shape=partialRectangle;connectable=0;fillColor=none;top=0;left=0;bottom=0;right=0;align=left;spacingLeft=6;overflow=hidden;" vertex="1" parent="r_fly-AJpgiWsE7_w21V-121">
          <mxGeometry x="60" width="120" height="40" as="geometry" />
        </mxCell>
        <mxCell id="r_fly-AJpgiWsE7_w21V-133" style="edgeStyle=orthogonalEdgeStyle;rounded=0;orthogonalLoop=1;jettySize=auto;html=1;exitX=1;exitY=0.5;exitDx=0;exitDy=0;entryX=0;entryY=0.5;entryDx=0;entryDy=0;fontSize=13;fontColor=#FFFF66;" edge="1" parent="1" source="r_fly-AJpgiWsE7_w21V-8" target="r_fly-AJpgiWsE7_w21V-58">
          <mxGeometry relative="1" as="geometry" />
        </mxCell>
        <mxCell id="r_fly-AJpgiWsE7_w21V-134" value="" style="endArrow=classic;html=1;fontSize=13;fontColor=#FFFF66;exitX=0.494;exitY=1.133;exitDx=0;exitDy=0;exitPerimeter=0;entryX=0.5;entryY=0;entryDx=0;entryDy=0;" edge="1" parent="1" source="r_fly-AJpgiWsE7_w21V-64" target="r_fly-AJpgiWsE7_w21V-80">
          <mxGeometry width="50" height="50" relative="1" as="geometry">
            <mxPoint x="780" y="600" as="sourcePoint" />
            <mxPoint x="830" y="550" as="targetPoint" />
          </mxGeometry>
        </mxCell>
        <mxCell id="r_fly-AJpgiWsE7_w21V-135" value="&lt;b&gt;&lt;font style=&quot;font-size: 30px&quot;&gt;Coding Process&lt;/font&gt;&lt;/b&gt;" style="text;html=1;strokeColor=none;fillColor=none;align=center;verticalAlign=middle;whiteSpace=wrap;rounded=0;fontSize=13;" vertex="1" parent="1">
          <mxGeometry x="70" y="20" width="650" height="80" as="geometry" />
        </mxCell>
        <mxCell id="r_fly-AJpgiWsE7_w21V-136" value="각 플랫폼에 서로 연결할 수 있는 링크 걸어두기.&amp;nbsp;" style="text;html=1;strokeColor=none;fillColor=none;align=center;verticalAlign=middle;whiteSpace=wrap;rounded=0;fontSize=13;fontColor=#000000;" vertex="1" parent="1">
          <mxGeometry x="435" y="700" width="320" height="50" as="geometry" />
        </mxCell>
      </root>
    </mxGraphModel>
  </diagram>
</mxfile>
